# xmcd
#
# Track frame offsets:
#	150
#	16710
#	29014
#	48834
#	68654
#	84123
#	97502
#	114107
#	129909
#	145086
#
# Disc length: 2168 seconds
#
# Revision: 0
# Processed by: cddbd v1.4PL0 Copyright (c) Steve Scherf et al.
# Submitted via: EasyCDDAExtractor 4.5.0.2
#
DISCID=6408760a
DTITLE=Neal McCoy - At This Moment
DYEAR=1990
DGENRE=Country
TTITLE0=If I Built You A Fire
TTITLE1=Take My Heart
TTITLE2=Down On The River
TTITLE3=Hillbilly Blue
TTITLE4=This Time I Hurt Her More Than She Loves Me
TTITLE5=Somebody Hold Me Until She Passes By
TTITLE6=The Big Heat
TTITLE7=If The Walls Had Ears
TTITLE8=At This Moment
TTITLE9=This Time I'm Takin' My Time
EXTD=
EXTT0=
EXTT1=
EXTT2=
EXTT3=
EXTT4=
EXTT5=
EXTT6=
EXTT7=
EXTT8=
EXTT9=
PLAYORDER=
